PathFileType	4	(X/Y/Z)	Patient4_TMGait_0pt4_02_left_02.trc.trc
DataRate	CameraRate	NumFrames	NumMarkers	Units	OrigDataRate	OrigDataStartFrame	OrigNumFrames
72.538860103627	72.538860103627	4	33	mm	72.538860103627	18	       141
Frame#	Time	Sacral			L.Shoulder			Chest			R.Shoulder			Neck			R.ASIS			L.ASIS			R.Thigh.Superior			R.Thigh.Lateral			R.Thigh.Inferior			R.Patella			L.Thigh.Superior			L.Thigh.Lateral			L.Thigh.Inferior			L.Patella			L.Shank.Superior			L.Shank.Lateral			L.Shank.Inferior			R.Shank.Superior			R.Shank.Lateral			R.Shank.Inferior			R.Heel			R.Midfoot.Superior			R.Midfoot.Lateral			R.Toe			L.Heel			L.Midfoot.Lateral			L.Midfoot.Superior			L.Toe			L.Elbow			L.Wrist			R.Elbow			R.Wrist			
		X1	Y1	Z1	X2	Y2	Z2	X3	Y3	Z3	X4	Y4	Z4	X5	Y5	Z5	X6	Y6	Z6	X7	Y7	Z7	X8	Y8	Z8	X9	Y9	Z9	X10	Y10	Z10	X11	Y11	Z11	X12	Y12	Z12	X13	Y13	Z13	X14	Y14	Z14	X15	Y15	Z15	X16	Y16	Z16	X17	Y17	Z17	X18	Y18	Z18	X19	Y19	Z19	X20	Y20	Z20	X21	Y21	Z21	X22	Y22	Z22	X23	Y23	Z23	X24	Y24	Z24	X25	Y25	Z25	X26	Y26	Z26	X27	Y27	Z27	X28	Y28	Z28	X29	Y29	Z29	X30	Y30	Z30	X31	Y31	Z31	X32	Y32	Z32	X33	Y33	Z33	

18	2.774357142857	865.303815718052	1010.126788279833	539.122091534921	1019.081590045480	1433.648615446681	325.588467376028	1151.678594904705	1365.018149654375	463.395904163320	1105.468482490893	1443.096658077631	648.969975834321	1032.652614579225	1496.302569031034	477.488981505111	1107.603303106453	939.843540953827	613.414580440997	1049.006164046524	966.345680001674	344.695003227896	1112.529216118881	729.630891787066	581.912301645454	1022.918916273099	630.588954263584	654.007017191482	1077.424488588316	570.074698362744	565.857495988010	1064.408690373993	486.023835002095	572.765419321531	1128.156484833315	779.927884365487	372.603253815545	1080.902353049726	653.831054186525	294.711637361507	1182.563898480282	592.829071333991	356.884955386973	1210.689313662786	530.463712558354	351.229376682984	1195.544395339183	458.991384757952	338.950918012496	1133.399973191817	329.116754908892	281.972756069535	1221.399825740027	229.690761980210	335.862581156227	1031.557472195372	399.704240378984	581.522982554692	957.521118695613	300.121718997302	646.753934089288	987.790029663833	203.709968188549	578.984356590379	844.568339859629	42.885836896911	551.968096148831	1015.991239838616	96.020400487995	584.724657821176	928.635228414673	37.004586248014	625.968524462038	1136.950981258920	42.748719820637	611.700214487624	1138.878756423432	50.999076643704	369.071061209397	1217.090208419936	52.606877373435	293.279246176316	1287.377851414642	130.413141595808	316.029888140052	1421.986928329051	99.505600993872	298.198188984134	892.529605784276	1097.171400101536	243.674664033377	891.017504919849	834.697553972607	245.124756716221	1228.433091352503	1126.275784742377	766.156553178181	1444.089404975279	1183.844218806479	654.028684133639	
19	2.788142857143	865.844114992523	1009.254288119631	537.818151021396	1018.418146154387	1433.071243341048	324.072714248057	1151.309639253402	1364.582135086015	461.649589378954	1105.148375755860	1442.425322650998	647.287087866149	1032.024954762385	1495.603376802841	475.948017866724	1108.189486891592	939.351452154897	612.285799338774	1049.623558684071	965.076697967293	343.433877064383	1111.941112878153	728.767654416286	581.457594167104	1021.407147903697	630.104594573688	653.460593464462	1075.674224297341	569.157045864948	565.632967109431	1061.952246568802	485.096351134971	572.449498885473	1128.078281451695	777.527596426289	370.982575479770	1078.322074160411	650.977034082507	295.063151973526	1180.368054149476	589.825305702681	356.085155340120	1207.584850006749	527.371911665346	351.401877251885	1192.289248399095	456.012923022221	339.621628443772	1129.360262747440	326.163878556170	284.131055192726	1217.426775827587	226.838713417778	337.765091183196	1028.464518405461	398.996817699710	581.256131822208	953.741399066914	300.008254682863	646.667814010920	983.169998278285	203.316739352966	578.955462866933	839.014569795841	42.899330400803	552.064641031607	1010.470565470617	95.997333630266	584.907278945210	923.064345163070	36.948163054422	626.053535275631	1131.377168632865	42.612478055403	611.768824971640	1134.349113258494	49.767053723093	372.855627068299	1211.642060564049	50.208156242582	296.257869883093	1283.248986111181	126.655600367910	318.140735989711	1416.958512260836	93.704800542843	298.956559423919	890.968970223005	1097.046502843128	242.598034446574	889.386240168723	834.533154083197	244.332129714009	1232.681163522363	1126.073836596740	760.573920206738	1447.869970599958	1185.109016536088	648.178803438608	
20	2.801928571429	866.590137094104	1008.222589440758	536.222513517483	1017.800344077992	1432.351947743939	322.312073189718	1150.914218328022	1364.181577058896	459.808754771218	1104.541610637907	1441.743165637965	645.466534861898	1031.245054048763	1494.818318430718	474.183744131207	1108.968338810214	938.788629344553	611.112373459406	1050.634261574259	963.707375389003	342.117987648695	1111.638586719648	727.842576976211	580.905655572823	1020.139735278731	629.552164792038	652.769862359055	1074.216829340460	568.165458893363	565.296666717374	1059.754573593987	484.064228070339	571.985921475335	1128.490337465171	775.011236048550	369.188229583756	1076.003430812524	647.987761031635	295.466792082358	1178.523229973794	586.773632302755	355.285217598472	1204.622062100500	523.927062554261	351.623488352024	1188.842251201274	452.553782187852	340.387038263845	1124.325890176062	323.102676958657	286.440828385884	1211.851131973085	223.378525154800	339.861260411931	1025.589265167968	398.196698067787	580.868515928616	950.125747501350	299.862707674345	646.481535073821	978.635925703140	202.870090921081	578.866570322990	833.469160509965	42.896921935299	552.169834496121	1004.949867623328	95.973704182098	585.082187651314	917.498884935405	36.882125356239	626.139472113812	1125.804845647416	42.476742309874	611.846374679891	1127.191501839541	48.360528728325	376.738296030471	1203.464106245750	47.620985407558	299.209795733554	1276.780609811073	122.235543413157	320.455581677648	1409.446188384109	86.691994610605	299.557574812111	890.005466063443	1096.608165510940	241.046239704710	888.803828198514	834.050121681856	242.983395779315	1236.039967286530	1125.712906245925	755.078262096784	1451.180340167183	1185.232505253382	642.596334736416	
21	2.815714285714	867.509392411449	1007.071140893405	534.355958599030	1017.242891192419	1431.499379586134	320.310743829188	1150.515761885189	1363.816145222346	457.866301765653	1103.701575868719	1441.062144999237	643.508719790078	1030.355367501694	1493.965257630002	472.199558157442	1109.918678242683	938.152420455562	609.875190195491	1051.989220945289	962.291488611880	340.747068235160	1111.615624507257	726.857221238157	580.232708687393	1019.123449694036	628.933962206171	651.912336814089	1073.045002839211	567.106220374214	564.807164821584	1057.820491966558	482.925106115822	571.339475372074	1129.306329250293	772.414728409508	367.314112607443	1073.985810120424	644.987133510870	295.857869857937	1176.972037702077	583.745264625036	354.572029906665	1201.764135199026	520.265304764280	351.961810021162	1185.298016348917	448.784492103954	341.227955341205	1118.677427046621	320.006704014875	288.711370608720	1205.156292436731	219.508782735701	342.056761136211	1022.929271748319	397.307230225643	580.332375652778	946.675136779859	299.697712271981	646.188950975914	974.186034125732	202.378853025317	578.708051435910	827.932446599144	42.892699983387	552.286943520263	999.429423605664	95.949267296443	585.237380490583	911.943745157549	36.813285206035	626.227558863920	1120.237327431902	42.334045680665	611.933429647360	1118.141349826397	46.772058422218	380.414525603563	1193.433958937884	44.991831961945	301.959061947480	1268.632417470531	117.474508363957	322.927922911266	1400.238651013105	79.089855569383	300.196154136353	889.643997046692	1095.853109257411	239.045974990924	889.239216867512	833.250164210371	241.079176174040	1238.509477935976	1125.166069067067	749.750923914524	1453.992568063341	1184.218465679699	637.315030623875	
